# xmcd
#
# Track frame offsets: 
#        150
#        19807
#        34767
#        53505
#        67112
#        82080
#        98455
#        117947
#        131742
#        147937
#        166542
#
# Disc length: 2451 seconds
#
# Revision: 1
# Processed by: cddbd v1.5.2PL0 Copyright (c) Steve Scherf et al.
# Submitted via: ExactAudioCopy v1.0b3
#
DISCID=8b09910b
DTITLE=The Pounders - Rockin' The Blues
DYEAR=1996
DGENRE=Blues
TTITLE0=Booze Blues
TTITLE1=Boogie With You
TTITLE2=Hard-Headed Woman
TTITLE3=She Turns Me On
TTITLE4=Flower Blues
TTITLE5=Black Eyed Peas
TTITLE6=Women Blues
TTITLE7=Shakin' That Thang
TTITLE8=Live Wire
TTITLE9=Busted
TTITLE10=Goin' Back To Texas
EXTD=
EXTT0=
EXTT1=
EXTT2=
EXTT3=
EXTT4=
EXTT5=
EXTT6=
EXTT7=
EXTT8=
EXTT9=
EXTT10=
PLAYORDER=
